{"title":"Priests.Children.2013.DVDRip.XviD.AC3.HORiZON-ArtSubs","uid":8105838,"size":1552147891,"categoryP":"video","categoryS":"movies","magnet":"?xt=urn:btih:3272834f7ed08273dd72ba3b8834d70b3e2552fd&amp;dn=Priests.Children.2013.DVDRip.XviD.AC3.HORiZON-ArtSubs&amp;tr=udp%3A%2F%2Ftracker.openbittorrent.com%3A80&amp;tr=udp%3A%2F%2Fopen.demonii.com%3A1337&amp;tr=udp%3A%2F%2Ftracker.coppersurfer.tk%3A6969&amp;tr=udp%3A%2F%2Fexodus.desync.com%3A6969","seeders":4,"leechers":0,"uploader":"lletaif","files":2,"time":1360079942,"description":"Title: \nPriest's Children Aka Svecenikova Djeca\n\nCountry:\nCroatia/2013\n\nLanguage:\nCroatian\n\nSubtitles: \nEnglish (.srt)\n\nGenre: \nComedy/Drama  \n\nDirector:\nVinko Bresan\n\nWriter:\nMate Matisic\n\nStars:\nKresimir Mikic, Niksa Butijer, Marija Skaricic \n\nSynopsis:\nDon Fabijan is a young priest who comes to serve on an unnamed small island in the Adriatic. In order to help increase birth rate on the island, he decides to pierce condoms before they are sold. He therefore teams up with the newsagent Petar and the pharmacist Marin. After they abolish all forms of birth control on the entire island, the consequences become more and more complicated.\n\nImdb: &lt;a href=&quot;\nhttp://www.imdb.com/title/tt2395421/&quot; rel=&quot;nofollow&quot; target=&quot;_NEW&quot;&gt;\nhttp://www.imdb.com/title/tt2395421/&lt;/a&gt;\n\nTrailer: &lt;a href=&quot;\nhttp://www.cineplexx.hr/sadrzaj/filmovi/detajlfilma.aspx?filmid=37432&quot; rel=&quot;nofollow&quot; target=&quot;_NEW&quot;&gt;\nhttp://www.cineplexx.hr/sadrzaj/filmovi/detajlfilma.aspx?filmid=37432&lt;/a&gt;\n\n\nMedia Info:\n\nGeneral\nComplete name                            : Priests.Children.2013.DVDRip.XviD.AC3.HORiZON-ArtSubs\nFormat                                   : AVI\nFormat/Info                              : Audio Video Interleave\nFile size                                : 1.45 GiB\nDuration                                 : 1h 32mn\nOverall bit rate                         : 2 240 Kbps\n\nVideo\nID                                       : 0\nFormat                                   : MPEG-4 Visual\nFormat profile                           : Advanced Simple@L5\nFormat settings, BVOP                    : 2\nFormat settings, QPel                    : No\nFormat settings, GMC                     : No warppoints\nFormat settings, Matrix                  : Default (MPEG)\nCodec ID                                 : XVID\nCodec ID/Hint                            : XviD\nDuration                                 : 1h 32mn\nBit rate                                 : 2 005 Kbps\nWidth                                    : 720 pixels\nHeight                                   : 304 pixels\nDisplay aspect ratio                     : 2.35:1\nFrame rate                               : 25.000 fps\nColor space                              : YUV\nChroma subsampling                       : 4:2:0\nBit depth                                : 8 bits\nScan type                                : Progressive\nCompression mode                         : Lossy\nBits/(Pixel*Frame)                       : 0.366\nStream size                              : 1.29 GiB (90%)\nWriting library                          : XviD 1.2.1 (UTC 2008-12-04)\n\nAudio\nID                                       : 1\nFormat                                   : AC-3\nFormat/Info                              : Audio Coding 3\nMode extension                           : CM (complete main)\nFormat settings, Endianness              : Big\nCodec ID                                 : 2000\nDuration                                 : 1h 32mn\nSource duration                          : 1h 32mn\nBit rate mode                            : Constant\nBit rate                                 : 224 Kbps\nChannel(s)                               : 2 channels\nChannel positions                        : Front: L R\nSampling rate                            : 48.0 KHz\nBit depth                                : 16 bits\nCompression mode                         : Lossy\nStream size                              : 148 MiB (10%)\nAlignment                                : Aligned on interleaves\nInterleave, duration                     : 32 ms (0.80 video frame)\n\n","torrent":{"xt":"urn:btih:3272834f7ed08273dd72ba3b8834d70b3e2552fd","amp;dn":"Priests.Children.2013.DVDRip.XviD.AC3.HORiZON-ArtSubs","amp;tr":["udp%3A%2F%2Ftracker.openbittorrent.com%3A80","udp%3A%2F%2Fopen.demonii.com%3A1337","udp%3A%2F%2Ftracker.coppersurfer.tk%3A6969","udp%3A%2F%2Fexodus.desync.com%3A6969"],"infoHash":"3272834f7ed08273dd72ba3b8834d70b3e2552fd","infoHashBuffer":{"type":"Buffer","data":[50,114,131,79,126,208,130,115,221,114,186,59,136,52,215,11,62,37,82,253]},"announce":[],"urlList":[]}}